# xmcd CD database file
#
# Track frame offsets:
#	150
#	15472
#	33487
#
# Disc length: 705 seconds
#
# Revision: 0
# Processed by: cddbd v1.5PL3 Copyright (c) Steve Scherf et al.
# Submitted via: CDex 1.40Release
#
DISCID=1802bf03
DTITLE=L - R - NICE TO MEET YOU
DYEAR=1996
DGENRE=Rock
TTITLE0=NICE TO MEET YOU
TTITLE1=I WISH
TTITLE2=GAME[Live Version]
EXTD=YEAR: 1996 ID3G: 17
EXTT0=
EXTT1=
EXTT2=
PLAYORDER=
